<svg width="78" height="75" viewBox="0 0 78 75" fill="none" xmlns="http://www.w3.org/2000/svg">
<path d="M77.9324 10.1002L25.3486 0.921875V68.9942L48.2942 66.3172L51.9273 74.9219L60.9144 64.0227L77.9324 61.9193V10.1002Z" fill="white"/>
<path d="M23.6275 9.52665L0.873047 5.31994V64.4051L23.6275 60.9632V9.52665Z" fill="#12B6BC"/>
<path d="M46.751 32.5247C46.6318 32.2424 46.4589 31.9859 46.2417 31.7696C46.0253 31.5527 45.7688 31.3797 45.4866 31.2603C45.4841 31.259 45.4816 31.2584 45.479 31.2572C45.8727 30.9728 46.1286 30.5096 46.1286 29.987C46.1286 29.1213 45.4272 28.4199 44.5615 28.4199C43.6958 28.4199 42.9944 29.1213 42.9944 29.987C42.9944 30.5096 43.2503 30.9728 43.644 31.2578C43.6415 31.259 43.6389 31.2597 43.6364 31.2609C43.3533 31.3804 43.0993 31.5516 42.8813 31.7703C42.6644 31.9867 42.4914 32.2432 42.372 32.5254C42.2546 32.8017 42.1914 33.0979 42.1856 33.398C42.1854 33.4048 42.1866 33.4115 42.189 33.4178C42.1915 33.424 42.1952 33.4298 42.1999 33.4346C42.2046 33.4394 42.2103 33.4433 42.2165 33.4459C42.2227 33.4485 42.2294 33.4498 42.2361 33.4498H42.6153C42.6431 33.4498 42.6652 33.4277 42.6658 33.4006C42.6784 32.9127 42.8743 32.4559 43.2206 32.1096C43.5789 31.7513 44.0547 31.5541 44.5615 31.5541C45.0683 31.5541 45.5441 31.7513 45.9024 32.1096C46.2487 32.4559 46.4446 32.9127 46.4572 33.4006C46.4578 33.4284 46.48 33.4498 46.5078 33.4498H46.8869C46.8936 33.4498 46.9003 33.4485 46.9065 33.4459C46.9128 33.4433 46.9184 33.4394 46.9231 33.4346C46.9278 33.4298 46.9315 33.424 46.934 33.4178C46.9364 33.4115 46.9376 33.4048 46.9375 33.398C46.9311 33.096 46.8686 32.8021 46.751 32.5247ZM44.5615 31.0739C44.2715 31.0739 43.9985 30.9608 43.7931 30.7554C43.5877 30.5501 43.4746 30.2771 43.4746 29.987C43.4746 29.697 43.5877 29.424 43.7931 29.2186C43.9985 29.0133 44.2715 28.9002 44.5615 28.9002C44.8515 28.9002 45.1245 29.0133 45.3299 29.2186C45.5353 29.424 45.6484 29.697 45.6484 29.987C45.6484 30.2771 45.5353 30.5501 45.3299 30.7554C45.1245 30.9608 44.8515 31.0739 44.5615 31.0739Z" fill="#133F7D"/>
<path d="M40.9294 27.1172H49.0304C49.358 27.1172 49.6235 27.3827 49.6235 27.7103V34.6364C49.6235 34.9639 49.358 35.2295 49.0304 35.2295H39.9974C39.6698 35.2295 39.4043 34.9639 39.4043 34.6364V28.6423M40.9294 27.1172C40.0871 27.1172 39.4043 27.8 39.4043 28.6423M40.9294 27.1172H64.0707C64.9129 27.1172 65.5957 27.8 65.5957 28.6423V43.1032C65.5957 43.9455 64.9129 44.6283 64.0707 44.6283H40.9294C40.0871 44.6283 39.4043 43.9455 39.4043 43.1032V28.6423M39.4043 41.6622H65.0839M47.641 48.7258C47.641 47.4454 49.9657 47.1006 51.482 47.255C51.5325 47.2601 51.5763 47.2207 51.5763 47.17V44.6283M57.4748 48.7258C57.4747 47.4454 55.1501 47.1006 53.6337 47.255C53.5833 47.2601 53.5395 47.2207 53.5395 47.17V44.6283" stroke="#133F7D"/>
<rect x="54.9492" y="31.5312" width="4.93769" height="4.93769" rx="1.75" stroke="#133F7D" stroke-width="0.5"/>
<mask id="path-5-inside-1_2094_11408" fill="white">
<ellipse cx="57.4215" cy="28.8492" rx="0.429291" ry="0.429291"/>
</mask>
<path d="M57.3508 28.8492C57.3508 28.8102 57.3824 28.7785 57.4215 28.7785V29.7785C57.9347 29.7785 58.3508 29.3624 58.3508 28.8492H57.3508ZM57.4215 28.7785C57.4605 28.7785 57.4922 28.8102 57.4922 28.8492H56.4922C56.4922 29.3624 56.9082 29.7785 57.4215 29.7785V28.7785ZM57.4922 28.8492C57.4922 28.8883 57.4605 28.9199 57.4215 28.9199V27.9199C56.9082 27.9199 56.4922 28.336 56.4922 28.8492H57.4922ZM57.4215 28.9199C57.3824 28.9199 57.3508 28.8883 57.3508 28.8492H58.3508C58.3508 28.336 57.9347 27.9199 57.4215 27.9199V28.9199Z" fill="#133F7D" mask="url(#path-5-inside-1_2094_11408)"/>
<line x1="57.4141" y1="28.9922" x2="57.4141" y2="31.2817" stroke="#133F7D" stroke-width="0.5"/>
<mask id="path-8-inside-2_2094_11408" fill="white">
<ellipse cx="58.8492" cy="29.7086" rx="0.429291" ry="0.429291"/>
</mask>
<path d="M58.7785 29.7086C58.7785 29.6695 58.8102 29.6379 58.8492 29.6379V30.6379C59.3624 30.6379 59.7785 30.2218 59.7785 29.7086H58.7785ZM58.8492 29.6379C58.8883 29.6379 58.9199 29.6695 58.9199 29.7086H57.9199C57.9199 30.2218 58.336 30.6379 58.8492 30.6379V29.6379ZM58.9199 29.7086C58.9199 29.7476 58.8883 29.7793 58.8492 29.7793V28.7793C58.336 28.7793 57.9199 29.1954 57.9199 29.7086H58.9199ZM58.8492 29.7793C58.8102 29.7793 58.7785 29.7476 58.7785 29.7086H59.7785C59.7785 29.1954 59.3624 28.7793 58.8492 28.7793V29.7793Z" fill="#133F7D" mask="url(#path-8-inside-2_2094_11408)"/>
<path d="M58.8418 29.8516L58.8418 31.2825" stroke="#133F7D" stroke-width="0.5"/>
<mask id="path-11-inside-3_2094_11408" fill="white">
<ellipse cx="55.9898" cy="29.7086" rx="0.429291" ry="0.429291"/>
</mask>
<path d="M55.9191 29.7086C55.9191 29.6695 55.9508 29.6379 55.9898 29.6379V30.6379C56.5031 30.6379 56.9191 30.2218 56.9191 29.7086H55.9191ZM55.9898 29.6379C56.0289 29.6379 56.0605 29.6695 56.0605 29.7086H55.0605C55.0605 30.2218 55.4766 30.6379 55.9898 30.6379V29.6379ZM56.0605 29.7086C56.0605 29.7476 56.0289 29.7793 55.9898 29.7793V28.7793C55.4766 28.7793 55.0605 29.1954 55.0605 29.7086H56.0605ZM55.9898 29.7793C55.9508 29.7793 55.9191 29.7476 55.9191 29.7086H56.9191C56.9191 29.1954 56.5031 28.7793 55.9898 28.7793V29.7793Z" fill="#133F7D" mask="url(#path-11-inside-3_2094_11408)"/>
<path d="M55.9824 29.8516L55.9824 31.2825" stroke="#133F7D" stroke-width="0.5"/>
<mask id="path-14-inside-4_2094_11408" fill="white">
<ellipse cx="0.429291" cy="0.429291" rx="0.429291" ry="0.429291" transform="matrix(1 0 0 -1 56.9922 39.582)"/>
</mask>
<path d="M57.3508 39.1527C57.3508 39.1918 57.3824 39.2234 57.4215 39.2234V38.2234C57.9347 38.2234 58.3508 38.6395 58.3508 39.1527H57.3508ZM57.4215 39.2234C57.4605 39.2234 57.4922 39.1918 57.4922 39.1527H56.4922C56.4922 38.6395 56.9082 38.2234 57.4215 38.2234V39.2234ZM57.4922 39.1527C57.4922 39.1137 57.4605 39.082 57.4215 39.082V40.082C56.9082 40.082 56.4922 39.666 56.4922 39.1527H57.4922ZM57.4215 39.082C57.3824 39.082 57.3508 39.1137 57.3508 39.1527H58.3508C58.3508 39.666 57.9347 40.082 57.4215 40.082V39.082Z" fill="#133F7D" mask="url(#path-14-inside-4_2094_11408)"/>
<line y1="-0.25" x2="2.28955" y2="-0.25" transform="matrix(-3.82461e-08 -1 -1 3.82461e-08 57.1641 39.0098)" stroke="#133F7D" stroke-width="0.5"/>
<mask id="path-17-inside-5_2094_11408" fill="white">
<ellipse cx="0.429291" cy="0.429291" rx="0.429291" ry="0.429291" transform="matrix(1 0 0 -1 58.4199 38.7227)"/>
</mask>
<path d="M58.7785 38.2934C58.7785 38.3324 58.8102 38.3641 58.8492 38.3641V37.3641C59.3624 37.3641 59.7785 37.7801 59.7785 38.2934H58.7785ZM58.8492 38.3641C58.8883 38.3641 58.9199 38.3324 58.9199 38.2934H57.9199C57.9199 37.7801 58.336 37.3641 58.8492 37.3641V38.3641ZM58.9199 38.2934C58.9199 38.2543 58.8883 38.2227 58.8492 38.2227V39.2227C58.336 39.2227 57.9199 38.8066 57.9199 38.2934H58.9199ZM58.8492 38.2227C58.8102 38.2227 58.7785 38.2543 58.7785 38.2934H59.7785C59.7785 38.8066 59.3624 39.2227 58.8492 39.2227V38.2227Z" fill="#133F7D" mask="url(#path-17-inside-5_2094_11408)"/>
<path d="M58.8418 38.1504L58.8418 36.7194" stroke="#133F7D" stroke-width="0.5"/>
<mask id="path-20-inside-6_2094_11408" fill="white">
<ellipse cx="0.429291" cy="0.429291" rx="0.429291" ry="0.429291" transform="matrix(1 0 0 -1 55.5605 38.7227)"/>
</mask>
<path d="M55.9191 38.2934C55.9191 38.3324 55.9508 38.3641 55.9898 38.3641V37.3641C56.5031 37.3641 56.9191 37.7801 56.9191 38.2934H55.9191ZM55.9898 38.3641C56.0289 38.3641 56.0605 38.3324 56.0605 38.2934H55.0605C55.0605 37.7801 55.4766 37.3641 55.9898 37.3641V38.3641ZM56.0605 38.2934C56.0605 38.2543 56.0289 38.2227 55.9898 38.2227V39.2227C55.4766 39.2227 55.0605 38.8066 55.0605 38.2934H56.0605ZM55.9898 38.2227C55.9508 38.2227 55.9191 38.2543 55.9191 38.2934H56.9191C56.9191 38.8066 56.5031 39.2227 55.9898 39.2227V38.2227Z" fill="#133F7D" mask="url(#path-20-inside-6_2094_11408)"/>
<path d="M55.9824 38.1504L55.9824 36.7194" stroke="#133F7D" stroke-width="0.5"/>
<mask id="path-23-inside-7_2094_11408" fill="white">
<ellipse cx="0.429291" cy="0.429291" rx="0.429291" ry="0.429291" transform="matrix(-4.37114e-08 -1 -1 4.37114e-08 62.998 34.4297)"/>
</mask>
<path d="M62.5688 34.0711C62.6078 34.0711 62.6395 34.0394 62.6395 34.0004L61.6395 34.0004C61.6395 33.4872 62.0555 33.0711 62.5688 33.0711L62.5688 34.0711ZM62.6395 34.0004C62.6395 33.9613 62.6078 33.9297 62.5688 33.9297L62.5688 34.9297C62.0555 34.9297 61.6395 34.5136 61.6395 34.0004L62.6395 34.0004ZM62.5688 33.9297C62.5297 33.9297 62.498 33.9613 62.498 34.0004L63.498 34.0004C63.498 34.5136 63.082 34.9297 62.5688 34.9297L62.5688 33.9297ZM62.498 34.0004C62.498 34.0394 62.5297 34.0711 62.5688 34.0711L62.5688 33.0711C63.082 33.0711 63.498 33.4872 63.498 34.0004L62.498 34.0004Z" fill="#133F7D" mask="url(#path-23-inside-7_2094_11408)"/>
<line y1="-0.25" x2="2.28955" y2="-0.25" transform="matrix(-1 8.19575e-08 8.19575e-08 1 62.4258 34.2578)" stroke="#133F7D" stroke-width="0.5"/>
<mask id="path-26-inside-8_2094_11408" fill="white">
<ellipse cx="0.429291" cy="0.429291" rx="0.429291" ry="0.429291" transform="matrix(-4.37114e-08 -1 -1 4.37114e-08 62.1406 32.998)"/>
</mask>
<path d="M61.7113 32.6395C61.7504 32.6395 61.782 32.6078 61.782 32.5688L60.782 32.5688C60.782 32.0555 61.1981 31.6395 61.7113 31.6395L61.7113 32.6395ZM61.782 32.5688C61.782 32.5297 61.7504 32.498 61.7113 32.498L61.7113 33.498C61.1981 33.498 60.782 33.082 60.782 32.5688L61.782 32.5688ZM61.7113 32.498C61.6723 32.498 61.6406 32.5297 61.6406 32.5688L62.6406 32.5688C62.6406 33.082 62.2246 33.498 61.7113 33.498L61.7113 32.498ZM61.6406 32.5688C61.6406 32.6078 61.6723 32.6395 61.7113 32.6395L61.7113 31.6395C62.2246 31.6395 62.6406 32.0555 62.6406 32.5688L61.6406 32.5688Z" fill="#133F7D" mask="url(#path-26-inside-8_2094_11408)"/>
<path d="M61.5684 32.5762L60.1374 32.5762" stroke="#133F7D" stroke-width="0.5"/>
<mask id="path-29-inside-9_2094_11408" fill="white">
<ellipse cx="0.429291" cy="0.429291" rx="0.429291" ry="0.429291" transform="matrix(-4.37114e-08 -1 -1 4.37114e-08 62.1406 35.8594)"/>
</mask>
<path d="M61.7113 35.5008C61.7504 35.5008 61.782 35.4691 61.782 35.4301L60.782 35.4301C60.782 34.9169 61.1981 34.5008 61.7113 34.5008L61.7113 35.5008ZM61.782 35.4301C61.782 35.391 61.7504 35.3594 61.7113 35.3594L61.7113 36.3594C61.1981 36.3594 60.782 35.9433 60.782 35.4301L61.782 35.4301ZM61.7113 35.3594C61.6723 35.3594 61.6406 35.391 61.6406 35.4301L62.6406 35.4301C62.6406 35.9433 62.2246 36.3594 61.7113 36.3594L61.7113 35.3594ZM61.6406 35.4301C61.6406 35.4691 61.6723 35.5008 61.7113 35.5008L61.7113 34.5008C62.2246 34.5008 62.6406 34.9169 62.6406 35.4301L61.6406 35.4301Z" fill="#133F7D" mask="url(#path-29-inside-9_2094_11408)"/>
<path d="M61.5684 35.4375L60.1374 35.4375" stroke="#133F7D" stroke-width="0.5"/>
<mask id="path-32-inside-10_2094_11408" fill="white">
<ellipse cx="0.429291" cy="0.429291" rx="0.429291" ry="0.429291" transform="matrix(4.37114e-08 1 1 -4.37114e-08 51.8379 33.5703)"/>
</mask>
<path d="M52.2672 33.9289C52.2281 33.9289 52.1965 33.9606 52.1965 33.9996L53.1965 33.9996C53.1965 34.5128 52.7804 34.9289 52.2672 34.9289L52.2672 33.9289ZM52.1965 33.9996C52.1965 34.0387 52.2281 34.0703 52.2672 34.0703L52.2672 33.0703C52.7804 33.0703 53.1965 33.4864 53.1965 33.9996L52.1965 33.9996ZM52.2672 34.0703C52.3062 34.0703 52.3379 34.0387 52.3379 33.9996L51.3379 33.9996C51.3379 33.4864 51.7539 33.0703 52.2672 33.0703L52.2672 34.0703ZM52.3379 33.9996C52.3379 33.9606 52.3062 33.9289 52.2672 33.9289L52.2672 34.9289C51.7539 34.9289 51.3379 34.5128 51.3379 33.9996L52.3379 33.9996Z" fill="#133F7D" mask="url(#path-32-inside-10_2094_11408)"/>
<line y1="-0.25" x2="2.28955" y2="-0.25" transform="matrix(1 -8.19575e-08 -8.19575e-08 -1 52.4102 33.7422)" stroke="#133F7D" stroke-width="0.5"/>
<mask id="path-35-inside-11_2094_11408" fill="white">
<ellipse cx="0.429291" cy="0.429291" rx="0.429291" ry="0.429291" transform="matrix(4.37114e-08 1 1 -4.37114e-08 52.6973 35)"/>
</mask>
<path d="M53.1266 35.3586C53.0875 35.3586 53.0558 35.3902 53.0558 35.4293L54.0558 35.4293C54.0558 35.9425 53.6398 36.3586 53.1266 36.3586L53.1266 35.3586ZM53.0558 35.4293C53.0558 35.4683 53.0875 35.5 53.1266 35.5L53.1266 34.5C53.6398 34.5 54.0558 34.9161 54.0558 35.4293L53.0558 35.4293ZM53.1266 35.5C53.1656 35.5 53.1973 35.4683 53.1973 35.4293L52.1973 35.4293C52.1973 34.9161 52.6133 34.5 53.1266 34.5L53.1266 35.5ZM53.1973 35.4293C53.1973 35.3902 53.1656 35.3586 53.1266 35.3586L53.1266 36.3586C52.6133 36.3586 52.1973 35.9425 52.1973 35.4293L53.1973 35.4293Z" fill="#133F7D" mask="url(#path-35-inside-11_2094_11408)"/>
<path d="M53.2695 35.4219L54.7005 35.4219" stroke="#133F7D" stroke-width="0.5"/>
<mask id="path-38-inside-12_2094_11408" fill="white">
<ellipse cx="0.429291" cy="0.429291" rx="0.429291" ry="0.429291" transform="matrix(4.37114e-08 1 1 -4.37114e-08 52.6973 32.1387)"/>
</mask>
<path d="M53.1266 32.4973C53.0875 32.4973 53.0558 32.5289 53.0558 32.568L54.0558 32.568C54.0558 33.0812 53.6398 33.4973 53.1266 33.4973L53.1266 32.4973ZM53.0558 32.568C53.0558 32.607 53.0875 32.6387 53.1266 32.6387L53.1266 31.6387C53.6398 31.6387 54.0558 32.0547 54.0558 32.568L53.0558 32.568ZM53.1266 32.6387C53.1656 32.6387 53.1973 32.607 53.1973 32.568L52.1973 32.568C52.1973 32.0547 52.6133 31.6387 53.1266 31.6387L53.1266 32.6387ZM53.1973 32.568C53.1973 32.5289 53.1656 32.4973 53.1266 32.4973L53.1266 33.4973C52.6133 33.4973 52.1973 33.0812 52.1973 32.568L53.1973 32.568Z" fill="#133F7D" mask="url(#path-38-inside-12_2094_11408)"/>
<path d="M53.2695 32.5605L54.7005 32.5605" stroke="#133F7D" stroke-width="0.5"/>
<path d="M56.639 34.387L56.3851 35.1562H56.0586L56.8894 32.7109H57.2703L58.1048 35.1562H57.7673L57.5061 34.387H56.639ZM57.4408 34.1404L57.2014 33.4366C57.1469 33.2769 57.1106 33.1318 57.0744 32.9903H57.0672C57.0309 33.1354 56.9909 33.2842 56.9438 33.433L56.7044 34.1404H57.4408V34.1404Z" fill="#133F7D"/>
<path d="M58.7805 32.7109V35.1562H58.4648V32.7109H58.7805Z" fill="#133F7D"/>
<path d="M41.4863 38.5225C41.4863 38.2642 41.6958 38.0547 41.9542 38.0547H43.5564C43.8148 38.0547 44.0243 38.2642 44.0243 38.5225V39.7811C44.0243 40.0394 43.8148 40.2489 43.5564 40.2489H41.9542C41.6958 40.2489 41.4863 40.0394 41.4863 39.7811V38.5225Z" fill="#133F7D"/>
<path d="M44.2208 39.6523V38.6429L44.7569 38.3257C44.8604 38.2645 44.9895 38.2664 45.0912 38.3307C45.184 38.3894 45.2403 38.4915 45.2403 38.6013V39.6904C45.2403 39.7948 45.1912 39.893 45.1079 39.9558C44.9981 40.0385 44.8486 40.0449 44.732 39.972L44.2208 39.6523Z" fill="#133F7D"/>
<rect x="46.707" y="37.9922" width="4.96923" height="0.340445" rx="0.170222" fill="#133F7D"/>
<rect x="46.707" y="38.4785" width="4.96923" height="0.340445" rx="0.170222" fill="#133F7D"/>
<rect x="46.707" y="38.9668" width="7.27863" height="0.340445" rx="0.170222" fill="#133F7D"/>
<rect x="46.707" y="39.4531" width="7.27863" height="0.340445" rx="0.170222" fill="#133F7D"/>
<rect x="46.707" y="39.9688" width="7.27863" height="0.340445" rx="0.170222" fill="#133F7D"/>
</svg>
