<svg width="78" height="75" viewBox="0 0 78 75" fill="none" xmlns="http://www.w3.org/2000/svg">
<path d="M77.9324 10.1002L25.3485 0.921875L25.3485 68.9942L48.2942 66.3172L51.9273 74.9219L60.9143 64.0227L77.9324 61.9193L77.9324 10.1002Z" fill="white"/>
<path d="M23.6275 9.52665L0.873047 5.31994L0.873047 64.4051L23.6275 60.9632L23.6275 9.52665Z" fill="#12B6BC"/>
<path d="M55.9908 48.7291L55.9934 48.7039L55.9934 48.6786L55.9934 45.7583C55.9934 44.3776 54.8741 43.2583 53.4934 43.2583L41.4023 43.2583C40.5739 43.2583 39.9023 42.5868 39.9023 41.7583L39.9023 25.5371C39.9023 24.7087 40.5739 24.0371 41.4023 24.0371L63.5938 24.0371C64.4222 24.0371 65.0938 24.7087 65.0938 25.5371L65.0938 41.7583C65.0938 42.5868 64.4222 43.2583 63.5938 43.2583L61.3165 43.2583C60.4413 43.2583 59.6306 43.7158 59.1766 44.4631C58.4155 45.7159 57.1493 47.791 56.744 48.4022C56.6105 48.6036 56.4388 48.818 56.2634 48.9941C56.1532 49.1048 56.056 49.1857 55.9776 49.24C55.9668 49.1223 55.9678 48.956 55.9908 48.7291ZM55.8256 49.321C55.8256 49.3209 55.8263 49.3208 55.8274 49.3206L55.8256 49.321Z" stroke="#133F7D"/>
<rect x="39.9023" y="24.0371" width="25.1914" height="17.4" rx="0.5" stroke="#133F7D"/>
<path d="M45.1989 30.3463C45.2893 30.1085 45.6312 30.1085 45.7218 30.3463L46.3063 31.9613C46.3267 32.0139 46.3626 32.0591 46.4093 32.0909C46.456 32.1227 46.5112 32.1397 46.5678 32.1396L48.0041 32.1396C48.2695 32.1396 48.3852 32.4691 48.1766 32.6305L47.1545 33.5478C47.1087 33.5829 47.0752 33.6316 47.0589 33.6869C47.0426 33.7421 47.0442 33.8011 47.0636 33.8554L47.4368 35.4335C47.5277 35.687 47.2335 35.9047 47.011 35.7487L45.6227 34.8699C45.5752 34.8366 45.5185 34.8187 45.4604 34.8187C45.4023 34.8187 45.3456 34.8366 45.298 34.8699L43.9097 35.7487C43.6875 35.9047 43.393 35.6867 43.4839 35.4335L43.8572 33.8554C43.8766 33.8011 43.8782 33.7421 43.8619 33.6869C43.8455 33.6316 43.8121 33.5829 43.7663 33.5478L42.7442 32.6305C42.5352 32.4691 42.6516 32.1396 42.9164 32.1396L44.3527 32.1396C44.4093 32.1397 44.4645 32.1228 44.5112 32.091C44.5579 32.0591 44.5938 32.0139 44.6142 31.9613L45.1986 30.3463H45.1989Z" fill="#133F7D"/>
<path d="M52.236 30.3463C52.3264 30.1085 52.6683 30.1085 52.7589 30.3463L53.3434 31.9613C53.3638 32.0139 53.3997 32.0591 53.4464 32.0909C53.4931 32.1227 53.5483 32.1397 53.6049 32.1396L55.0412 32.1396C55.3066 32.1396 55.4224 32.4691 55.2137 32.6305L54.1916 33.5478C54.1458 33.5829 54.1123 33.6316 54.096 33.6869C54.0797 33.7421 54.0813 33.8011 54.1007 33.8554L54.4739 35.4335C54.5649 35.687 54.2706 35.9047 54.0482 35.7487L52.6598 34.8699C52.6123 34.8366 52.5556 34.8187 52.4975 34.8187C52.4394 34.8187 52.3827 34.8366 52.3351 34.8699L50.9468 35.7487C50.7246 35.9047 50.4301 35.6867 50.521 35.4335L50.8943 33.8554C50.9137 33.8011 50.9153 33.7421 50.899 33.6869C50.8826 33.6316 50.8492 33.5829 50.8034 33.5478L49.7813 32.6305C49.5723 32.4691 49.6887 32.1396 49.9535 32.1396L51.3898 32.1396C51.4464 32.1397 51.5017 32.1228 51.5483 32.091C51.595 32.0591 51.6309 32.0139 51.6513 31.9613L52.2357 30.3463H52.236Z" fill="#133F7D"/>
<path d="M59.2751 30.3463C59.3654 30.1085 59.7074 30.1085 59.798 30.3463L60.3825 31.9613C60.4029 32.0139 60.4388 32.0591 60.4854 32.0909C60.5321 32.1227 60.5874 32.1397 60.6439 32.1396L62.0802 32.1396C62.3457 32.1396 62.4614 32.4691 62.2528 32.6305L61.2306 33.5478C61.1849 33.5829 61.1514 33.6316 61.1351 33.6869C61.1187 33.7421 61.1204 33.8011 61.1397 33.8554L61.513 35.4335C61.6039 35.687 61.3097 35.9047 61.0872 35.7487L59.6989 34.8699C59.6514 34.8366 59.5947 34.8187 59.5366 34.8187C59.4784 34.8187 59.4217 34.8366 59.3742 34.8699L57.9859 35.7487C57.7637 35.9047 57.4692 35.6867 57.5601 35.4335L57.9334 33.8554C57.9527 33.8011 57.9544 33.7421 57.938 33.6869C57.9217 33.6316 57.8882 33.5829 57.8425 33.5478L56.8203 32.6305C56.6114 32.4691 56.7277 32.1396 56.9926 32.1396L58.4289 32.1396C58.4854 32.1397 58.5407 32.1228 58.5874 32.091C58.6341 32.0591 58.67 32.0139 58.6903 31.9613L59.2748 30.3463H59.2751Z" fill="#133F7D"/>
<path d="M45.3664 29.848C45.4546 29.6158 45.7887 29.6158 45.8772 29.848L46.4482 31.4258C46.4681 31.4771 46.5032 31.5213 46.5488 31.5524C46.5944 31.5835 46.6484 31.6001 46.7036 31.5999L48.1068 31.5999C48.3661 31.5999 48.4792 31.9219 48.2753 32.0795L47.2768 32.9757C47.2321 33.01 47.1994 33.0576 47.1834 33.1115C47.1675 33.1655 47.1691 33.2232 47.188 33.2762L47.5526 34.8179C47.6415 35.0655 47.354 35.2782 47.1367 35.1258L45.7804 34.2673C45.7339 34.2347 45.6786 34.2173 45.6218 34.2173C45.565 34.2173 45.5096 34.2347 45.4632 34.2673L44.1069 35.1258C43.8898 35.2782 43.6021 35.0653 43.6909 34.8179L44.0556 33.2762C44.0745 33.2232 44.0761 33.1655 44.0602 33.1115C44.0442 33.0576 44.0115 33.01 43.9668 32.9757L42.9683 32.0795C42.7641 31.9219 42.8778 31.5999 43.1365 31.5999L44.5397 31.5999C44.5949 31.6001 44.6489 31.5836 44.6945 31.5525C44.7402 31.5214 44.7752 31.4772 44.7951 31.4258L45.3661 29.848L45.3664 29.848Z" fill="#133F7D"/>
<path d="M52.2414 29.848C52.3296 29.6158 52.6637 29.6158 52.7522 29.848L53.3232 31.4258C53.3431 31.4771 53.3782 31.5213 53.4238 31.5524C53.4694 31.5835 53.5234 31.6001 53.5786 31.5999L54.9818 31.5999C55.2411 31.5999 55.3542 31.9219 55.1503 32.0795L54.1518 32.9757C54.1071 33.01 54.0744 33.0576 54.0584 33.1115C54.0425 33.1655 54.0441 33.2232 54.063 33.2762L54.4276 34.8179C54.5165 35.0655 54.229 35.2782 54.0117 35.1258L52.6554 34.2673C52.6089 34.2347 52.5536 34.2173 52.4968 34.2173C52.44 34.2173 52.3846 34.2347 52.3382 34.2673L50.9819 35.1258C50.7648 35.2782 50.4771 35.0653 50.5659 34.8179L50.9306 33.2762C50.9495 33.2232 50.9511 33.1655 50.9352 33.1115C50.9192 33.0576 50.8865 33.01 50.8418 32.9757L49.8433 32.0795C49.6391 31.9219 49.7528 31.5999 50.0115 31.5999L51.4147 31.5999C51.4699 31.6001 51.5239 31.5836 51.5695 31.5525C51.6152 31.5214 51.6502 31.4772 51.6701 31.4258L52.2411 29.848L52.2414 29.848Z" fill="#133F7D"/>
<path d="M59.1183 29.848C59.2066 29.6158 59.5406 29.6158 59.6292 29.848L60.2001 31.4258C60.2201 31.4771 60.2551 31.5213 60.3007 31.5524C60.3463 31.5835 60.4003 31.6001 60.4556 31.5999L61.8587 31.5999C62.118 31.5999 62.2311 31.9219 62.0273 32.0795L61.0288 32.9757C60.984 33.01 60.9513 33.0576 60.9354 33.1115C60.9194 33.1655 60.921 33.2232 60.9399 33.2762L61.3046 34.8179C61.3934 35.0655 61.106 35.2782 60.8886 35.1258L59.5323 34.2673C59.4859 34.2347 59.4305 34.2173 59.3737 34.2173C59.317 34.2173 59.2616 34.2347 59.2151 34.2673L57.8589 35.1258C57.6418 35.2782 57.3541 35.0653 57.4429 34.8179L57.8076 33.2762C57.8265 33.2232 57.8281 33.1655 57.8121 33.1115C57.7961 33.0576 57.7635 33.01 57.7187 32.9757L56.7202 32.0795C56.5161 31.9219 56.6297 31.5999 56.8885 31.5999L58.2916 31.5999C58.3469 31.6001 58.4009 31.5836 58.4465 31.5525C58.4921 31.5214 58.5272 31.4772 58.5471 31.4258L59.118 29.848L59.1183 29.848Z" fill="#133F7D"/>
</svg>
