<svg width="71" height="68" viewBox="0 0 71 68" fill="none" xmlns="http://www.w3.org/2000/svg">
<path d="M70.6729 8.47804L22.9068 0.140625V61.9761L43.7502 59.5444L47.0504 67.3606L55.2141 57.46L70.6729 55.5494V8.47804Z" fill="white"/>
<path d="M21.3435 7.95702L0.673828 4.13573V57.8074L21.3435 54.6809V7.95702Z" fill="#12B6BC"/>
<g clip-path="url(#clip0_6006_37706)">
<mask id="path-2-outside-1_6006_37706" maskUnits="userSpaceOnUse" x="35.7646" y="15.416" width="25" height="26" fill="black">
<rect fill="white" x="35.7646" y="15.416" width="25" height="26"/>
<path d="M59.438 16.416H39.5958C39.4149 16.416 39.2683 16.5626 39.2683 16.7436V29.0736C39.2683 29.2545 39.4149 29.4011 39.5958 29.4011C39.7767 29.4011 39.9234 29.2545 39.9234 29.0736V17.0711H59.1105V37.6679C59.1105 38.7961 58.1932 39.714 57.0657 39.714C55.9374 39.714 55.0196 38.7961 55.0196 37.6679V36.729C55.0196 36.5481 54.8729 36.4015 54.692 36.4015H37.0922C36.9113 36.4015 36.7646 36.5481 36.7646 36.729V37.6679C36.7646 39.1573 37.9764 40.3691 39.4659 40.3691H44.6495H57.0657C58.5544 40.3691 59.7656 39.1573 59.7656 37.6679V16.7436C59.7656 16.5626 59.6189 16.416 59.438 16.416ZM44.6495 39.714H39.4659C38.3376 39.714 37.4197 38.7961 37.4197 37.6679V37.0566H54.3645V37.6679C54.3645 38.4849 54.729 39.2183 55.304 39.714H44.6495ZM39.0445 35.5448C39.4934 35.5448 39.9457 35.401 40.3263 35.1043L43.5575 32.585C43.7329 32.4488 43.8446 32.2519 43.872 32.0307C43.8964 31.8339 43.8513 31.6398 43.7453 31.4763L45.0658 30.4473C46.0036 31.2394 47.151 31.7445 48.3979 31.8989C48.6653 31.9321 48.9319 31.9484 49.1972 31.9484C50.6138 31.9484 51.9823 31.4805 53.1177 30.5956C55.8979 28.4277 56.397 24.4007 54.2303 21.6186C54.2302 21.6185 54.2302 21.6185 54.2302 21.6185C52.0614 18.837 48.0337 18.3378 45.2517 20.506C43.9044 21.5565 43.0466 23.0688 42.8364 24.7644C42.6818 26.0114 42.8915 27.2475 43.4309 28.3502L42.1111 29.3786C41.9784 29.2363 41.8016 29.1455 41.6054 29.121C41.3842 29.0931 41.1656 29.1532 40.9897 29.29L37.758 31.8095C36.8497 32.5176 36.6867 33.8327 37.3948 34.741C37.8062 35.2687 38.4222 35.5448 39.0445 35.5448ZM43.4865 24.845C43.6752 23.323 44.4452 21.9655 45.6544 21.0227C46.7011 20.207 47.9439 19.8119 49.1782 19.8119C50.8888 19.8119 52.5828 20.571 53.7135 22.0211C55.6584 24.5184 55.2105 28.1331 52.715 30.079C51.5051 31.0219 50.0003 31.4376 48.4784 31.2488C46.9563 31.0603 45.5988 30.2902 44.6559 29.0803C43.7131 27.8712 43.2978 26.3671 43.4865 24.845ZM43.7526 28.93C43.8711 29.1196 43.9998 29.3042 44.1392 29.483C44.2788 29.6622 44.4268 29.8323 44.5821 29.9938L43.3455 30.9574L42.5165 29.8932L43.7526 28.93ZM38.1608 32.3261L41.3921 29.8069C41.4296 29.7777 41.4766 29.765 41.5243 29.771C41.5519 29.7745 41.6042 29.7878 41.6435 29.8384L43.1861 31.8187C43.2252 31.8687 43.2253 31.9225 43.2219 31.95C43.2185 31.9774 43.2054 32.029 43.1552 32.0681L39.9236 34.5876C39.3002 35.0737 38.3975 34.9618 37.9115 34.3383C37.4254 33.7148 37.5373 32.8122 38.1608 32.3261ZM48.5935 30.3253C48.7946 30.3503 48.995 30.3625 49.1944 30.3625C50.2596 30.3625 51.2884 30.0106 52.1417 29.3451C53.1554 28.5551 53.8007 27.4177 53.9586 26.1425C54.1166 24.8674 53.7685 23.6069 52.9784 22.5932C52.9784 22.5932 52.9784 22.5931 52.9784 22.5931C51.3476 20.5021 48.3193 20.1267 46.2278 21.7564C44.1356 23.387 43.7603 26.416 45.3911 28.5084C46.1811 29.5221 47.3184 30.1674 48.5935 30.3253ZM51.7389 28.8285C50.8638 29.511 49.7752 29.8119 48.674 29.6752C47.8554 29.5738 47.1027 29.2394 46.4899 28.715C46.5389 27.5948 47.4652 26.6985 48.5973 26.6985H49.7722C50.9036 26.6985 51.8297 27.5938 51.8796 28.7132C51.8335 28.7524 51.7869 28.7911 51.7389 28.8285ZM47.5576 24.4164C47.5576 23.5192 48.2876 22.7892 49.1847 22.7892C50.0819 22.7892 50.8118 23.5192 50.8118 24.4164C50.8118 25.3135 50.0819 26.0434 49.1847 26.0434C48.2876 26.0434 47.5576 25.3135 47.5576 24.4164ZM46.6305 22.2731C47.3876 21.6832 48.2868 21.3974 49.1798 21.3974C50.4176 21.3974 51.6434 21.9466 52.4618 22.996C53.1443 23.8717 53.445 24.9606 53.3086 26.062C53.2139 26.8262 52.9163 27.5327 52.4508 28.1219C52.2159 27.2061 51.5224 26.4727 50.6307 26.1806C51.1409 25.7617 51.4669 25.1264 51.4669 24.4164C51.4669 23.158 50.4431 22.1342 49.1848 22.1342C47.9264 22.1342 46.9026 23.158 46.9026 24.4164C46.9026 25.1265 47.2286 25.7617 47.7388 26.1806C46.8478 26.4724 46.1546 27.205 45.9193 28.1198C45.9155 28.115 45.9115 28.1105 45.9078 28.1058C44.499 26.2982 44.8232 23.6816 46.6305 22.2731ZM52.1299 33.2122C52.1299 33.3932 51.9833 33.5398 51.8024 33.5398H51.6181C51.4372 33.5398 51.2906 33.3932 51.2906 33.2122C51.2906 33.0313 51.4372 32.8847 51.6181 32.8847H51.8024C51.9833 32.8847 52.1299 33.0313 52.1299 33.2122ZM52.1299 34.3672C52.1299 34.5482 51.9833 34.6948 51.8024 34.6948H51.6181C51.4372 34.6948 51.2906 34.5482 51.2906 34.3672C51.2906 34.1863 51.4372 34.0397 51.6181 34.0397H51.8024C51.9833 34.0397 52.1299 34.1863 52.1299 34.3672ZM57.8414 33.2122C57.8414 33.3932 57.6948 33.5398 57.5139 33.5398H53.029C52.8481 33.5398 52.7014 33.3932 52.7014 33.2122C52.7014 33.0313 52.8481 32.8847 53.029 32.8847H57.5139C57.6948 32.8847 57.8414 33.0313 57.8414 33.2122ZM57.8414 34.3672C57.8414 34.5482 57.6948 34.6948 57.5139 34.6948H53.029C52.8481 34.6948 52.7014 34.5482 52.7014 34.3672C52.7014 34.1863 52.8481 34.0397 53.029 34.0397H57.5139C57.6948 34.0397 57.8414 34.1863 57.8414 34.3672ZM41.1938 18.6757C41.1938 18.4948 41.3404 18.3481 41.5213 18.3481H43.7637C43.9446 18.3481 44.0913 18.4947 44.0913 18.6757C44.0913 18.8566 43.9446 19.0032 43.7637 19.0032H41.5213C41.3404 19.0032 41.1938 18.8566 41.1938 18.6757ZM41.1938 19.8307C41.1938 19.6498 41.3404 19.5032 41.5213 19.5032H43.7637C43.9446 19.5032 44.0913 19.6498 44.0913 19.8307C44.0913 20.0117 43.9446 20.1583 43.7637 20.1583H41.5213C41.3404 20.1583 41.1938 20.0117 41.1938 19.8307Z"/>
</mask>
<path d="M59.438 16.416H39.5958C39.4149 16.416 39.2683 16.5626 39.2683 16.7436V29.0736C39.2683 29.2545 39.4149 29.4011 39.5958 29.4011C39.7767 29.4011 39.9234 29.2545 39.9234 29.0736V17.0711H59.1105V37.6679C59.1105 38.7961 58.1932 39.714 57.0657 39.714C55.9374 39.714 55.0196 38.7961 55.0196 37.6679V36.729C55.0196 36.5481 54.8729 36.4015 54.692 36.4015H37.0922C36.9113 36.4015 36.7646 36.5481 36.7646 36.729V37.6679C36.7646 39.1573 37.9764 40.3691 39.4659 40.3691H44.6495H57.0657C58.5544 40.3691 59.7656 39.1573 59.7656 37.6679V16.7436C59.7656 16.5626 59.6189 16.416 59.438 16.416ZM44.6495 39.714H39.4659C38.3376 39.714 37.4197 38.7961 37.4197 37.6679V37.0566H54.3645V37.6679C54.3645 38.4849 54.729 39.2183 55.304 39.714H44.6495ZM39.0445 35.5448C39.4934 35.5448 39.9457 35.401 40.3263 35.1043L43.5575 32.585C43.7329 32.4488 43.8446 32.2519 43.872 32.0307C43.8964 31.8339 43.8513 31.6398 43.7453 31.4763L45.0658 30.4473C46.0036 31.2394 47.151 31.7445 48.3979 31.8989C48.6653 31.9321 48.9319 31.9484 49.1972 31.9484C50.6138 31.9484 51.9823 31.4805 53.1177 30.5956C55.8979 28.4277 56.397 24.4007 54.2303 21.6186C54.2302 21.6185 54.2302 21.6185 54.2302 21.6185C52.0614 18.837 48.0337 18.3378 45.2517 20.506C43.9044 21.5565 43.0466 23.0688 42.8364 24.7644C42.6818 26.0114 42.8915 27.2475 43.4309 28.3502L42.1111 29.3786C41.9784 29.2363 41.8016 29.1455 41.6054 29.121C41.3842 29.0931 41.1656 29.1532 40.9897 29.29L37.758 31.8095C36.8497 32.5176 36.6867 33.8327 37.3948 34.741C37.8062 35.2687 38.4222 35.5448 39.0445 35.5448ZM43.4865 24.845C43.6752 23.323 44.4452 21.9655 45.6544 21.0227C46.7011 20.207 47.9439 19.8119 49.1782 19.8119C50.8888 19.8119 52.5828 20.571 53.7135 22.0211C55.6584 24.5184 55.2105 28.1331 52.715 30.079C51.5051 31.0219 50.0003 31.4376 48.4784 31.2488C46.9563 31.0603 45.5988 30.2902 44.6559 29.0803C43.7131 27.8712 43.2978 26.3671 43.4865 24.845ZM43.7526 28.93C43.8711 29.1196 43.9998 29.3042 44.1392 29.483C44.2788 29.6622 44.4268 29.8323 44.5821 29.9938L43.3455 30.9574L42.5165 29.8932L43.7526 28.93ZM38.1608 32.3261L41.3921 29.8069C41.4296 29.7777 41.4766 29.765 41.5243 29.771C41.5519 29.7745 41.6042 29.7878 41.6435 29.8384L43.1861 31.8187C43.2252 31.8687 43.2253 31.9225 43.2219 31.95C43.2185 31.9774 43.2054 32.029 43.1552 32.0681L39.9236 34.5876C39.3002 35.0737 38.3975 34.9618 37.9115 34.3383C37.4254 33.7148 37.5373 32.8122 38.1608 32.3261ZM48.5935 30.3253C48.7946 30.3503 48.995 30.3625 49.1944 30.3625C50.2596 30.3625 51.2884 30.0106 52.1417 29.3451C53.1554 28.5551 53.8007 27.4177 53.9586 26.1425C54.1166 24.8674 53.7685 23.6069 52.9784 22.5932C52.9784 22.5932 52.9784 22.5931 52.9784 22.5931C51.3476 20.5021 48.3193 20.1267 46.2278 21.7564C44.1356 23.387 43.7603 26.416 45.3911 28.5084C46.1811 29.5221 47.3184 30.1674 48.5935 30.3253ZM51.7389 28.8285C50.8638 29.511 49.7752 29.8119 48.674 29.6752C47.8554 29.5738 47.1027 29.2394 46.4899 28.715C46.5389 27.5948 47.4652 26.6985 48.5973 26.6985H49.7722C50.9036 26.6985 51.8297 27.5938 51.8796 28.7132C51.8335 28.7524 51.7869 28.7911 51.7389 28.8285ZM47.5576 24.4164C47.5576 23.5192 48.2876 22.7892 49.1847 22.7892C50.0819 22.7892 50.8118 23.5192 50.8118 24.4164C50.8118 25.3135 50.0819 26.0434 49.1847 26.0434C48.2876 26.0434 47.5576 25.3135 47.5576 24.4164ZM46.6305 22.2731C47.3876 21.6832 48.2868 21.3974 49.1798 21.3974C50.4176 21.3974 51.6434 21.9466 52.4618 22.996C53.1443 23.8717 53.445 24.9606 53.3086 26.062C53.2139 26.8262 52.9163 27.5327 52.4508 28.1219C52.2159 27.2061 51.5224 26.4727 50.6307 26.1806C51.1409 25.7617 51.4669 25.1264 51.4669 24.4164C51.4669 23.158 50.4431 22.1342 49.1848 22.1342C47.9264 22.1342 46.9026 23.158 46.9026 24.4164C46.9026 25.1265 47.2286 25.7617 47.7388 26.1806C46.8478 26.4724 46.1546 27.205 45.9193 28.1198C45.9155 28.115 45.9115 28.1105 45.9078 28.1058C44.499 26.2982 44.8232 23.6816 46.6305 22.2731ZM52.1299 33.2122C52.1299 33.3932 51.9833 33.5398 51.8024 33.5398H51.6181C51.4372 33.5398 51.2906 33.3932 51.2906 33.2122C51.2906 33.0313 51.4372 32.8847 51.6181 32.8847H51.8024C51.9833 32.8847 52.1299 33.0313 52.1299 33.2122ZM52.1299 34.3672C52.1299 34.5482 51.9833 34.6948 51.8024 34.6948H51.6181C51.4372 34.6948 51.2906 34.5482 51.2906 34.3672C51.2906 34.1863 51.4372 34.0397 51.6181 34.0397H51.8024C51.9833 34.0397 52.1299 34.1863 52.1299 34.3672ZM57.8414 33.2122C57.8414 33.3932 57.6948 33.5398 57.5139 33.5398H53.029C52.8481 33.5398 52.7014 33.3932 52.7014 33.2122C52.7014 33.0313 52.8481 32.8847 53.029 32.8847H57.5139C57.6948 32.8847 57.8414 33.0313 57.8414 33.2122ZM57.8414 34.3672C57.8414 34.5482 57.6948 34.6948 57.5139 34.6948H53.029C52.8481 34.6948 52.7014 34.5482 52.7014 34.3672C52.7014 34.1863 52.8481 34.0397 53.029 34.0397H57.5139C57.6948 34.0397 57.8414 34.1863 57.8414 34.3672ZM41.1938 18.6757C41.1938 18.4948 41.3404 18.3481 41.5213 18.3481H43.7637C43.9446 18.3481 44.0913 18.4947 44.0913 18.6757C44.0913 18.8566 43.9446 19.0032 43.7637 19.0032H41.5213C41.3404 19.0032 41.1938 18.8566 41.1938 18.6757ZM41.1938 19.8307C41.1938 19.6498 41.3404 19.5032 41.5213 19.5032H43.7637C43.9446 19.5032 44.0913 19.6498 44.0913 19.8307C44.0913 20.0117 43.9446 20.1583 43.7637 20.1583H41.5213C41.3404 20.1583 41.1938 20.0117 41.1938 19.8307Z" fill="#133F7D"/>
<path d="M59.438 16.416H39.5958C39.4149 16.416 39.2683 16.5626 39.2683 16.7436V29.0736C39.2683 29.2545 39.4149 29.4011 39.5958 29.4011C39.7767 29.4011 39.9234 29.2545 39.9234 29.0736V17.0711H59.1105V37.6679C59.1105 38.7961 58.1932 39.714 57.0657 39.714C55.9374 39.714 55.0196 38.7961 55.0196 37.6679V36.729C55.0196 36.5481 54.8729 36.4015 54.692 36.4015H37.0922C36.9113 36.4015 36.7646 36.5481 36.7646 36.729V37.6679C36.7646 39.1573 37.9764 40.3691 39.4659 40.3691H44.6495H57.0657C58.5544 40.3691 59.7656 39.1573 59.7656 37.6679V16.7436C59.7656 16.5626 59.6189 16.416 59.438 16.416ZM44.6495 39.714H39.4659C38.3376 39.714 37.4197 38.7961 37.4197 37.6679V37.0566H54.3645V37.6679C54.3645 38.4849 54.729 39.2183 55.304 39.714H44.6495ZM39.0445 35.5448C39.4934 35.5448 39.9457 35.401 40.3263 35.1043L43.5575 32.585C43.7329 32.4488 43.8446 32.2519 43.872 32.0307C43.8964 31.8339 43.8513 31.6398 43.7453 31.4763L45.0658 30.4473C46.0036 31.2394 47.151 31.7445 48.3979 31.8989C48.6653 31.9321 48.9319 31.9484 49.1972 31.9484C50.6138 31.9484 51.9823 31.4805 53.1177 30.5956C55.8979 28.4277 56.397 24.4007 54.2303 21.6186C54.2302 21.6185 54.2302 21.6185 54.2302 21.6185C52.0614 18.837 48.0337 18.3378 45.2517 20.506C43.9044 21.5565 43.0466 23.0688 42.8364 24.7644C42.6818 26.0114 42.8915 27.2475 43.4309 28.3502L42.1111 29.3786C41.9784 29.2363 41.8016 29.1455 41.6054 29.121C41.3842 29.0931 41.1656 29.1532 40.9897 29.29L37.758 31.8095C36.8497 32.5176 36.6867 33.8327 37.3948 34.741C37.8062 35.2687 38.4222 35.5448 39.0445 35.5448ZM43.4865 24.845C43.6752 23.323 44.4452 21.9655 45.6544 21.0227C46.7011 20.207 47.9439 19.8119 49.1782 19.8119C50.8888 19.8119 52.5828 20.571 53.7135 22.0211C55.6584 24.5184 55.2105 28.1331 52.715 30.079C51.5051 31.0219 50.0003 31.4376 48.4784 31.2488C46.9563 31.0603 45.5988 30.2902 44.6559 29.0803C43.7131 27.8712 43.2978 26.3671 43.4865 24.845ZM43.7526 28.93C43.8711 29.1196 43.9998 29.3042 44.1392 29.483C44.2788 29.6622 44.4268 29.8323 44.5821 29.9938L43.3455 30.9574L42.5165 29.8932L43.7526 28.93ZM38.1608 32.3261L41.3921 29.8069C41.4296 29.7777 41.4766 29.765 41.5243 29.771C41.5519 29.7745 41.6042 29.7878 41.6435 29.8384L43.1861 31.8187C43.2252 31.8687 43.2253 31.9225 43.2219 31.95C43.2185 31.9774 43.2054 32.029 43.1552 32.0681L39.9236 34.5876C39.3002 35.0737 38.3975 34.9618 37.9115 34.3383C37.4254 33.7148 37.5373 32.8122 38.1608 32.3261ZM48.5935 30.3253C48.7946 30.3503 48.995 30.3625 49.1944 30.3625C50.2596 30.3625 51.2884 30.0106 52.1417 29.3451C53.1554 28.5551 53.8007 27.4177 53.9586 26.1425C54.1166 24.8674 53.7685 23.6069 52.9784 22.5932C52.9784 22.5932 52.9784 22.5931 52.9784 22.5931C51.3476 20.5021 48.3193 20.1267 46.2278 21.7564C44.1356 23.387 43.7603 26.416 45.3911 28.5084C46.1811 29.5221 47.3184 30.1674 48.5935 30.3253ZM51.7389 28.8285C50.8638 29.511 49.7752 29.8119 48.674 29.6752C47.8554 29.5738 47.1027 29.2394 46.4899 28.715C46.5389 27.5948 47.4652 26.6985 48.5973 26.6985H49.7722C50.9036 26.6985 51.8297 27.5938 51.8796 28.7132C51.8335 28.7524 51.7869 28.7911 51.7389 28.8285ZM47.5576 24.4164C47.5576 23.5192 48.2876 22.7892 49.1847 22.7892C50.0819 22.7892 50.8118 23.5192 50.8118 24.4164C50.8118 25.3135 50.0819 26.0434 49.1847 26.0434C48.2876 26.0434 47.5576 25.3135 47.5576 24.4164ZM46.6305 22.2731C47.3876 21.6832 48.2868 21.3974 49.1798 21.3974C50.4176 21.3974 51.6434 21.9466 52.4618 22.996C53.1443 23.8717 53.445 24.9606 53.3086 26.062C53.2139 26.8262 52.9163 27.5327 52.4508 28.1219C52.2159 27.2061 51.5224 26.4727 50.6307 26.1806C51.1409 25.7617 51.4669 25.1264 51.4669 24.4164C51.4669 23.158 50.4431 22.1342 49.1848 22.1342C47.9264 22.1342 46.9026 23.158 46.9026 24.4164C46.9026 25.1265 47.2286 25.7617 47.7388 26.1806C46.8478 26.4724 46.1546 27.205 45.9193 28.1198C45.9155 28.115 45.9115 28.1105 45.9078 28.1058C44.499 26.2982 44.8232 23.6816 46.6305 22.2731ZM52.1299 33.2122C52.1299 33.3932 51.9833 33.5398 51.8024 33.5398H51.6181C51.4372 33.5398 51.2906 33.3932 51.2906 33.2122C51.2906 33.0313 51.4372 32.8847 51.6181 32.8847H51.8024C51.9833 32.8847 52.1299 33.0313 52.1299 33.2122ZM52.1299 34.3672C52.1299 34.5482 51.9833 34.6948 51.8024 34.6948H51.6181C51.4372 34.6948 51.2906 34.5482 51.2906 34.3672C51.2906 34.1863 51.4372 34.0397 51.6181 34.0397H51.8024C51.9833 34.0397 52.1299 34.1863 52.1299 34.3672ZM57.8414 33.2122C57.8414 33.3932 57.6948 33.5398 57.5139 33.5398H53.029C52.8481 33.5398 52.7014 33.3932 52.7014 33.2122C52.7014 33.0313 52.8481 32.8847 53.029 32.8847H57.5139C57.6948 32.8847 57.8414 33.0313 57.8414 33.2122ZM57.8414 34.3672C57.8414 34.5482 57.6948 34.6948 57.5139 34.6948H53.029C52.8481 34.6948 52.7014 34.5482 52.7014 34.3672C52.7014 34.1863 52.8481 34.0397 53.029 34.0397H57.5139C57.6948 34.0397 57.8414 34.1863 57.8414 34.3672ZM41.1938 18.6757C41.1938 18.4948 41.3404 18.3481 41.5213 18.3481H43.7637C43.9446 18.3481 44.0913 18.4947 44.0913 18.6757C44.0913 18.8566 43.9446 19.0032 43.7637 19.0032H41.5213C41.3404 19.0032 41.1938 18.8566 41.1938 18.6757ZM41.1938 19.8307C41.1938 19.6498 41.3404 19.5032 41.5213 19.5032H43.7637C43.9446 19.5032 44.0913 19.6498 44.0913 19.8307C44.0913 20.0117 43.9446 20.1583 43.7637 20.1583H41.5213C41.3404 20.1583 41.1938 20.0117 41.1938 19.8307Z" stroke="#133F7D" stroke-width="0.3" mask="url(#path-2-outside-1_6006_37706)"/>
</g>
<defs>
<clipPath id="clip0_6006_37706">
<rect width="24" height="24" fill="white" transform="translate(36.2646 16.3926)"/>
</clipPath>
</defs>
</svg>
