<svg width="74" height="70" viewBox="0 0 74 70" fill="none" xmlns="http://www.w3.org/2000/svg">
<path d="M73.4698 8.68223L23.7283 0V64.3928L45.4337 61.8605L48.8703 70L57.3716 59.6899L73.4698 57.7003V8.68223Z" fill="white"/>
<path d="M22.1003 8.13965L0.575806 4.16033V60.0517L22.1003 56.7959V8.13965Z" fill="#12B6BC"/>
<mask id="mask0_52_73" style="mask-type:alpha" maskUnits="userSpaceOnUse" x="37" y="21" width="25" height="25">
<rect x="37" y="21" width="24.0013" height="24.0013" fill="#D9D9D9"/>
</mask>
<g mask="url(#mask0_52_73)">
<path d="M41.5505 24.9004H44.8123C44.969 24.9004 45.1004 24.9484 45.2214 25.0518C45.3493 25.1609 45.4243 25.2879 45.4578 25.4424V25.4414L46.0261 28.3564V28.3574C46.0518 28.5342 46.0519 28.6768 46.0349 28.79L46.0125 28.8936C45.9758 29.0207 45.9134 29.1204 45.824 29.2021L45.8142 29.2119L43.5046 31.46L43.2869 31.6719L43.4324 31.9385C43.8146 32.6385 44.2515 33.3011 44.7429 33.9258C45.2306 34.5457 45.7591 35.1374 46.3269 35.7012C46.8881 36.2625 47.4849 36.7844 48.1169 37.2656C48.75 37.7476 49.4325 38.195 50.1638 38.6084L50.4304 38.7588L50.6453 38.542L52.8894 36.2783L52.8933 36.2744C52.9735 36.191 53.066 36.1259 53.1736 36.0791L53.2869 36.0381C53.4514 35.9898 53.6242 35.9766 53.8093 36.002L56.5437 36.5586C56.7194 36.6053 56.8513 36.6916 56.9548 36.8154C57.056 36.9365 57.1012 37.0624 57.1013 37.208V40.4512C57.1013 40.6509 57.0391 40.7967 56.9177 40.917C56.7961 41.0375 56.6471 41.1005 56.4421 41.1006C54.6216 41.1006 52.7848 40.6781 50.9294 39.8232C49.0738 38.9682 47.3646 37.7604 45.8025 36.1953C44.2402 34.6298 43.0336 32.9203 42.1785 31.0674C41.3237 29.2154 40.9011 27.3802 40.9011 25.5596C40.9012 25.3546 40.9642 25.2056 41.0847 25.084C41.205 24.9626 41.3508 24.9004 41.5505 24.9004ZM53.6189 36.7051L53.5193 36.7285C53.4107 36.765 53.3292 36.831 53.2732 36.8867L53.2712 36.8887L51.49 38.6885L51.0906 39.0928L51.6052 39.333C52.294 39.6541 53.0123 39.8996 53.7595 40.0693C54.4983 40.2369 55.195 40.337 55.8474 40.3691L55.8572 40.3701H55.8669C56.0042 40.3701 56.1403 40.3202 56.2458 40.2148C56.3514 40.1093 56.4011 39.9724 56.4011 39.835V37.7314C56.4011 37.6423 56.3847 37.5427 56.3357 37.4482L56.2751 37.3564L56.2 37.2783C56.12 37.2106 56.0287 37.1723 55.9451 37.1514L55.9275 37.1475L53.8279 36.7197H53.8269C53.7659 36.7045 53.695 36.6954 53.6189 36.7051ZM50.2537 24.9004H56.5994C56.7556 24.9004 56.8666 24.9484 56.9597 25.042C57.0536 25.1363 57.1013 25.2483 57.1013 25.4043V29.6729C57.1013 29.8283 57.0533 29.9398 56.9587 30.0342C56.8643 30.1287 56.7528 30.1777 56.5974 30.1777H51.6433L51.5261 30.2949L49.7478 32.0723V25.4043C49.7478 25.2491 49.7956 25.1375 49.8904 25.043C49.9852 24.9483 50.0973 24.9004 50.2537 24.9004ZM42.1511 25.5996C42.0137 25.5996 41.8768 25.6503 41.7712 25.7559V25.7568C41.6662 25.8626 41.616 25.9982 41.616 26.1348V26.1494L41.6169 26.165C41.6566 26.6949 41.7317 27.2301 41.8416 27.7705L41.9636 28.3125C42.1418 29.0415 42.3899 29.7668 42.7078 30.4883L42.9382 31.0107L43.3503 30.6162L45.1355 28.9082L45.1335 28.9062C45.2293 28.8193 45.2878 28.7109 45.3123 28.5977C45.3317 28.5075 45.3321 28.4106 45.3083 28.3125H45.3093L44.8748 26.0771L44.8718 26.0674L44.8699 26.0566L44.8425 25.9707C44.8198 25.9131 44.7871 25.855 44.7419 25.8018L44.6648 25.7266L44.572 25.666C44.4778 25.6173 44.3787 25.5997 44.2898 25.5996H42.1511ZM50.448 29.4775H56.4011V25.5996H50.448V29.4775Z" stroke="#133F7D" stroke-width="0.8"/>
</g>
</svg>
