<svg width="78" height="75" viewBox="0 0 78 75" fill="none" xmlns="http://www.w3.org/2000/svg">
<path d="M77.9324 10.1002L25.3485 0.921875L25.3485 68.9942L48.2942 66.3172L51.9273 74.9219L60.9143 64.0227L77.9324 61.9193L77.9324 10.1002Z" fill="white"/>
<path d="M23.6275 9.52665L0.873047 5.31994L0.873047 64.4051L23.6275 60.9632L23.6275 9.52665Z" fill="#12B6BC"/>
<path d="M49.8457 27.4769C49.8457 26.6698 50.4999 26.0156 51.3069 26.0156L61.0001 26.0156C61.8071 26.0156 62.4613 26.6698 62.4613 27.4769L62.4613 31.0077C62.4613 31.8147 61.8071 32.4689 61.0001 32.4689L51.3069 32.4689C50.4999 32.4689 49.8457 31.8147 49.8457 31.0077L49.8457 27.4769Z" stroke="#133F7D" stroke-width="1.5"/>
<path d="M48.5389 27.9531L40.4004 27.9531C39.8481 27.9531 39.4004 28.4008 39.4004 28.9531L39.4004 43.7613C39.4004 44.3136 39.8481 44.7613 40.4004 44.7613L52.1289 44.7613M63.7968 27.9531L64.5918 27.9531C65.1441 27.9531 65.5918 28.4008 65.5918 28.9531L65.5918 44.6681C65.5918 45.0795 65.2583 45.413 64.8468 45.413V45.413" stroke="#133F7D" stroke-width="1.5"/>
<path d="M61.9019 37.5125C61.9019 39.2345 60.506 40.6304 58.784 40.6304C57.062 40.6304 55.666 39.2345 55.666 37.5125C55.666 35.7905 57.062 34.3945 58.784 34.3945C60.506 34.3945 61.9019 35.7905 61.9019 37.5125Z" stroke="#133F7D" stroke-width="1.5"/>
<ellipse cx="52.7911" cy="29.2501" rx="0.644659" ry="0.644659" fill="#133F7D"/>
<ellipse cx="56.1447" cy="29.2501" rx="0.644659" ry="0.644659" fill="#133F7D"/>
<ellipse cx="59.5001" cy="29.2501" rx="0.644659" ry="0.644659" fill="#133F7D"/>
<path d="M47.3936 34.104C47.3936 35.114 46.5749 35.9327 45.565 35.9327C44.555 35.9327 43.7363 35.114 43.7363 34.104C43.7363 33.0941 44.555 32.2754 45.565 32.2754C46.5749 32.2754 47.3936 33.0941 47.3936 34.104Z" stroke="#133F7D" stroke-width="1.5"/>
<path d="M54.2988 47.2543C54.2988 44.7709 56.312 42.7578 58.7953 42.7578C61.2786 42.7578 63.2917 44.7709 63.2917 47.2543L63.2917 48.5793C63.2917 48.855 63.0682 49.0786 62.7924 49.0786L54.7981 49.0786C54.5224 49.0786 54.2988 48.855 54.2988 48.5793L54.2988 47.2543Z" stroke="#133F7D" stroke-width="1.5"/>
<path d="M42.4766 41.0002C42.4766 39.2947 43.8592 37.9121 45.5647 37.9121C47.2702 37.9121 48.6528 39.2947 48.6528 41.0002L48.6528 41.7669C48.6528 41.927 48.523 42.0567 48.363 42.0567L42.7664 42.0567C42.6063 42.0567 42.4766 41.927 42.4766 41.7669L42.4766 41.0002Z" stroke="#133F7D" stroke-width="1.5"/>
<path d="M46.4581 47.2201C46.5737 46.9966 46.8766 46.9803 47.1282 46.9803L47.5866 46.9803C48.0618 46.9803 48.5765 46.9182 48.8513 46.5306C48.9015 46.4598 48.9552 46.3769 49.0147 46.2789C49.2133 45.9969 49.5537 45.9199 49.8987 45.9199L51.3903 45.9199C51.6665 45.9199 51.8903 46.1438 51.8903 46.4199L51.8903 47.6188C51.8903 47.895 51.6665 48.1188 51.3903 48.1188L46.9632 48.1188C46.6513 48.1188 46.3984 47.8659 46.3984 47.554C46.3984 47.4502 46.4029 47.3439 46.4445 47.2488C46.4488 47.2389 46.4533 47.2293 46.4581 47.2201Z" fill="#133F7D"/>
</svg>
