<svg width="78" height="75" viewBox="0 0 78 75" fill="none" xmlns="http://www.w3.org/2000/svg">
<path d="M77.9324 10.1002L25.3485 0.921875L25.3485 68.9942L48.2942 66.3172L51.9273 74.9219L60.9143 64.0227L77.9324 61.9193L77.9324 10.1002Z" fill="white"/>
<path d="M23.6275 9.52665L0.873047 5.31994L0.873047 64.4051L23.6275 60.9632L23.6275 9.52665Z" fill="#12B6BC"/>
<path d="M46.7491 32.5247C46.6299 32.2424 46.4569 31.9859 46.2398 31.7696C46.0233 31.5527 45.7669 31.3797 45.4847 31.2603C45.4821 31.259 45.4796 31.2584 45.4771 31.2572C45.8707 30.9728 46.1267 30.5096 46.1267 29.987C46.1267 29.1213 45.4253 28.4199 44.5596 28.4199C43.6939 28.4199 42.9924 29.1213 42.9924 29.987C42.9924 30.5096 43.2484 30.9728 43.642 31.2578C43.6395 31.259 43.637 31.2597 43.6345 31.2609C43.3514 31.3804 43.0973 31.5516 42.8793 31.7703C42.6624 31.9867 42.4895 32.2432 42.37 32.5254C42.2527 32.8017 42.1894 33.0979 42.1836 33.398C42.1834 33.4048 42.1846 33.4115 42.1871 33.4178C42.1896 33.424 42.1933 33.4298 42.198 33.4346C42.2027 33.4394 42.2083 33.4433 42.2145 33.4459C42.2207 33.4485 42.2274 33.4498 42.2342 33.4498L42.6133 33.4498C42.6411 33.4498 42.6632 33.4277 42.6639 33.4006C42.6765 32.9127 42.8724 32.4559 43.2187 32.1096C43.5769 31.7513 44.0528 31.5541 44.5596 31.5541C45.0663 31.5541 45.5422 31.7513 45.9004 32.1096C46.2467 32.4559 46.4426 32.9127 46.4553 33.4006C46.4559 33.4284 46.478 33.4498 46.5058 33.4498L46.8849 33.4498C46.8917 33.4498 46.8984 33.4485 46.9046 33.4459C46.9108 33.4433 46.9164 33.4394 46.9211 33.4346C46.9259 33.4298 46.9296 33.424 46.932 33.4178C46.9345 33.4115 46.9357 33.4048 46.9355 33.398C46.9292 33.096 46.8666 32.8021 46.7491 32.5247ZM44.5596 31.0739C44.2695 31.0739 43.9965 30.9608 43.7912 30.7554C43.5858 30.5501 43.4727 30.2771 43.4727 29.987C43.4727 29.697 43.5858 29.424 43.7912 29.2186C43.9965 29.0133 44.2695 28.9002 44.5596 28.9002C44.8496 28.9002 45.1226 29.0133 45.3279 29.2186C45.5333 29.424 45.6464 29.697 45.6464 29.987C45.6464 30.2771 45.5333 30.5501 45.3279 30.7554C45.1226 30.9608 44.8496 31.0739 44.5596 31.0739Z" fill="#133F7D"/>
<path d="M59.0034 37.726C58.7727 37.1797 58.4381 36.6835 58.018 36.2651C57.5992 35.8454 57.1031 35.5108 56.5571 35.2797C56.5522 35.2773 56.5473 35.276 56.5424 35.2736C57.304 34.7234 57.7992 33.8273 57.7992 32.8163C57.7992 31.1414 56.4421 29.7844 54.7673 29.7844C53.0924 29.7844 51.7354 31.1414 51.7354 32.8163C51.7354 33.8273 52.2305 34.7234 52.9921 35.2748C52.9873 35.2773 52.9824 35.2785 52.9775 35.2809C52.4298 35.512 51.9383 35.8433 51.5165 36.2663C51.0969 36.6851 50.7622 37.1812 50.5312 37.7272C50.3042 38.2618 50.1818 38.8349 50.1705 39.4155C50.1702 39.4286 50.1725 39.4416 50.1773 39.4537C50.182 39.4659 50.1892 39.4769 50.1983 39.4863C50.2074 39.4956 50.2183 39.5031 50.2303 39.5081C50.2424 39.5132 50.2553 39.5158 50.2683 39.5158L51.0019 39.5158C51.0556 39.5158 51.0984 39.473 51.0997 39.4204C51.1241 38.4766 51.5031 37.5927 52.173 36.9228C52.8662 36.2296 53.7868 35.8482 54.7673 35.8482C55.7477 35.8482 56.6683 36.2296 57.3615 36.9228C58.0314 37.5927 58.4104 38.4766 58.4349 39.4204C58.4361 39.4742 58.4789 39.5158 58.5327 39.5158L59.2662 39.5158C59.2792 39.5158 59.2922 39.5132 59.3042 39.5081C59.3162 39.5031 59.3271 39.4956 59.3362 39.4863C59.3453 39.4769 59.3525 39.4659 59.3573 39.4537C59.362 39.4416 59.3643 39.4286 59.364 39.4155C59.3518 38.8312 59.2307 38.2627 59.0034 37.726ZM54.7673 34.9191C54.2061 34.9191 53.678 34.7002 53.2807 34.3029C52.8833 33.9056 52.6645 33.3774 52.6645 32.8163C52.6645 32.2551 52.8833 31.727 53.2807 31.3297C53.678 30.9324 54.2061 30.7135 54.7673 30.7135C55.3284 30.7135 55.8565 30.9324 56.2539 31.3297C56.6512 31.727 56.87 32.2551 56.87 32.8163C56.87 33.3774 56.6512 33.9056 56.2539 34.3029C55.8565 34.7002 55.3284 34.9191 54.7673 34.9191Z" fill="#133F7D"/>
<path d="M40.9274 27.1172L49.0285 27.1172C49.356 27.1172 49.6216 27.3827 49.6216 27.7103L49.6216 34.6364C49.6216 34.9639 49.356 35.2295 49.0285 35.2295L39.9954 35.2295C39.6679 35.2295 39.4023 34.9639 39.4023 34.6364L39.4023 28.6423M40.9274 27.1172C40.0851 27.1172 39.4023 27.8 39.4023 28.6423M40.9274 27.1172L64.0687 27.1172C64.911 27.1172 65.5938 27.8 65.5938 28.6423L65.5938 43.1032C65.5938 43.9455 64.911 44.6283 64.0687 44.6283L40.9274 44.6283C40.0851 44.6283 39.4023 43.9455 39.4023 43.1032L39.4023 28.6423M39.4023 41.6622L65.0819 41.6622M47.639 48.7258C47.6391 47.4454 49.9637 47.1006 51.4801 47.255C51.5305 47.2601 51.5743 47.2207 51.5743 47.17L51.5743 44.6283M57.4728 48.7258C57.4728 47.4454 55.1481 47.1006 53.6318 47.255C53.5813 47.2601 53.5375 47.2207 53.5375 47.17L53.5375 44.6283" stroke="#133F7D"/>
<path d="M59.3652 29.032C59.3652 28.6939 59.6393 28.4199 59.9773 28.4199L62.0733 28.4199C62.4114 28.4199 62.6854 28.6939 62.6854 29.032L62.6854 30.6784C62.6854 31.0164 62.4114 31.2904 62.0733 31.2904L59.9773 31.2904C59.6393 31.2904 59.3652 31.0164 59.3652 30.6784L59.3652 29.032Z" fill="white"/>
<path d="M62.9425 30.51L62.9425 29.1895L63.6438 28.7745C63.7792 28.6943 63.9481 28.6968 64.0811 28.781C64.2025 28.8577 64.2761 28.9914 64.2761 29.135L64.2761 30.5598C64.2761 30.6963 64.212 30.8248 64.103 30.9069C63.9593 31.0151 63.7638 31.0236 63.6113 30.9282L62.9425 30.51Z" fill="white"/>
</svg>
