<svg xmlns="http://www.w3.org/2000/svg" fill="none" viewBox="0 0 47 47" class="nuxt-icon" data-v-d195479c=""><path fill="#000" d="M34.811 31.514c-1.46 0-2.768.577-3.768 1.48l-13.707-7.978c.096-.442.173-.885.173-1.346s-.077-.904-.174-1.346l13.554-7.901c1.038.96 2.403 1.557 3.922 1.557a5.76 5.76 0 0 0 5.768-5.768 5.76 5.76 0 0 0-5.768-5.767 5.76 5.76 0 0 0-5.767 5.767c0 .462.077.904.173 1.346L15.663 19.46c-1.038-.962-2.403-1.558-3.922-1.558a5.76 5.76 0 0 0-5.768 5.768 5.76 5.76 0 0 0 5.768 5.768c1.519 0 2.884-.596 3.922-1.558l13.688 7.998a5.4 5.4 0 0 0-.153 1.25 5.62 5.62 0 0 0 5.613 5.614 5.62 5.62 0 0 0 5.614-5.614 5.62 5.62 0 0 0-5.614-5.614"></path></svg>